<svg width="21" height="20" viewBox="0 0 21 20" fill="none" xmlns="http://www.w3.org/2000/svg">
<g clip-path="url(#clip0_3195_453)">
<path d="M17.4355 13.0621C16.0496 15.4562 13.4598 17.0703 10.5 17.0703C7.54023 17.0703 4.95039 15.4562 3.56445 13.0621C1.69805 14.5519 0.5 16.8457 0.5 19.4141C0.5 19.7375 0.7625 20 1.08594 20H19.9141C20.2375 20 20.5 19.7375 20.5 19.4141C20.5 16.8457 19.302 14.5519 17.4355 13.0621Z" fill="currentColor" />
<path d="M5.00195 1.28906H2.6875C2.36406 1.28906 2.10156 1.55156 2.10156 1.875C2.10156 3.00664 2.5375 4.03867 3.25039 4.81133C3.50781 3.47461 4.12695 2.26523 5.00195 1.28906Z" fill="currentColor" />
<path d="M18.8984 1.875C18.8984 1.55156 18.6359 1.28906 18.3125 1.28906H15.998C16.873 2.26523 17.4922 3.47461 17.7496 4.81133C18.4625 4.03867 18.8984 3.00664 18.8984 1.875Z" fill="currentColor" />
<path d="M4.28906 7.30469H5.37969C5.59805 6.58242 6.26992 6.05469 7.0625 6.05469C7.85508 6.05469 8.52695 6.58242 8.74531 7.30469H12.2547C12.473 6.58242 13.1449 6.05469 13.9375 6.05469C14.7301 6.05469 15.402 6.58242 15.6203 7.30469H16.7109V6.21094C16.7109 2.78633 13.9246 0 10.5 0C7.07539 0 4.28906 2.78633 4.28906 6.21094V7.30469ZM11.75 3.16406H13C13.3234 3.16406 13.5859 3.42656 13.5859 3.75C13.5859 4.07344 13.3234 4.33594 13 4.33594H11.75C11.4266 4.33594 11.1641 4.07344 11.1641 3.75C11.1641 3.42656 11.4266 3.16406 11.75 3.16406ZM8 3.16406H9.25C9.57344 3.16406 9.83594 3.42656 9.83594 3.75C9.83594 4.07344 9.57344 4.33594 9.25 4.33594H8C7.67656 4.33594 7.41406 4.07344 7.41406 3.75C7.41406 3.42656 7.67656 3.16406 8 3.16406Z" fill="currentColor" />
<path d="M7.0625 7.22656C6.73891 7.22656 6.47656 7.48891 6.47656 7.8125V8.47656H4.25C3.92641 8.47656 3.66406 8.73891 3.66406 9.0625C3.66406 12.8318 6.73066 15.8984 10.5 15.8984C14.2693 15.8984 17.3359 12.8318 17.3359 9.0625C17.3359 8.73891 17.0736 8.47656 16.75 8.47656H14.5234V7.8125C14.5234 7.48891 14.2611 7.22656 13.9375 7.22656C13.6139 7.22656 13.3516 7.48891 13.3516 7.8125V8.47656H7.64844V7.8125C7.64844 7.48891 7.38609 7.22656 7.0625 7.22656Z" fill="currentColor" />
</g>
<defs>
<clipPath id="clip0_3195_453">
<rect width="20" height="20" fill="white" transform="translate(0.5)"/>
</clipPath>
</defs>
</svg>
