<svg width="21" height="20" viewBox="0 0 21 20" fill="none" xmlns="http://www.w3.org/2000/svg">
<g clip-path="url(#clip0_3195_441)">
<path d="M11.9866 17.1407C12.148 17.1368 12.2858 17.0229 12.3198 16.8649C12.3313 16.8071 12.3473 16.7511 12.3619 16.6943C12.3706 16.6603 12.3773 16.6254 12.3874 16.5921C12.3944 16.5675 12.4042 16.5443 12.4117 16.5207C12.6026 15.9229 12.9647 15.3941 13.4531 15H11.3391C11.292 15.2185 11.2592 15.4353 11.2339 15.6519C11.2288 15.695 11.2241 15.7382 11.2203 15.7814C11.1992 15.9958 11.1846 16.21 11.1846 16.4285C11.1846 16.5582 11.1931 16.6832 11.2052 16.806C11.2163 16.9096 11.2323 17.0128 11.2528 17.1158C11.2545 17.1246 11.2555 17.1339 11.2574 17.1428H11.9716C11.978 17.1428 11.982 17.1407 11.9866 17.1407Z" fill="currentColor" />
<path d="M12.296 2.03568C12.3067 1.95709 12.3174 1.88217 12.3352 1.8071C12.3424 1.76422 12.3568 1.7215 12.3674 1.67862C12.3853 1.61072 12.4031 1.54282 12.4282 1.47507C12.4414 1.4325 12.457 1.39084 12.4745 1.34995C12.4996 1.28571 12.5246 1.22147 12.5531 1.16074C12.571 1.12137 12.5923 1.07864 12.6102 1.03928C12.6424 0.978546 12.6781 0.917816 12.7103 0.860748C12.7353 0.821381 12.7567 0.785675 12.7782 0.749969C12.8174 0.68924 12.8638 0.62851 12.9067 0.571442C12.9282 0.539246 12.9496 0.510712 12.9746 0.478516C13.0327 0.406189 13.0947 0.337067 13.1603 0.271454C13.1746 0.257111 13.1853 0.24292 13.196 0.232086C13.2738 0.153656 13.356 0.0796509 13.4424 0.0106812L13.4531 0H3.32812C1.94736 0 0.828125 1.11923 0.828125 2.5C0.828125 3.88077 1.94736 5 3.32812 5H13.4531C12.697 4.39026 12.2573 3.47137 12.2567 2.5C12.2567 2.38174 12.2638 2.26379 12.2782 2.14645C12.2817 2.11075 12.2888 2.07138 12.296 2.03568ZM3.32812 1.42853C2.83908 1.42838 2.41168 1.75873 2.28885 2.23221C2.24948 2.38937 2.10818 2.49985 1.94598 2.5C1.83536 2.50015 1.73099 2.44919 1.66324 2.36176C1.59549 2.27448 1.57184 2.16064 1.59961 2.05353C1.80301 1.26526 2.51407 0.714417 3.32812 0.714264C3.52542 0.714264 3.68533 0.874176 3.68533 1.07147C3.68533 1.26862 3.52542 1.42853 3.32812 1.42853ZM5.82812 1.42853H4.75665C4.55951 1.42853 4.3996 1.26862 4.3996 1.07147C4.3996 0.874176 4.55951 0.714264 4.75665 0.714264H5.82812C6.02542 0.714264 6.18533 0.874176 6.18533 1.07147C6.18533 1.26862 6.02542 1.42853 5.82812 1.42853Z" fill="currentColor" />
<path d="M17.7666 18.3757C18.0258 17.8333 18.1694 16.9829 17.3815 16.0065C16.9287 15.4002 16.2268 15.0305 15.4708 15C15.3894 15 15.3116 15.0136 15.232 15.0211C15.1641 15.0279 15.0948 15.0282 15.0283 15.0403C14.9784 15.0493 14.932 15.0671 14.8833 15.0793C14.1109 15.2673 13.4734 15.8107 13.1655 16.5436C13.1591 16.559 13.1494 16.5721 13.1433 16.5875C13.1169 16.6557 13.1015 16.7303 13.0808 16.8018C13.0602 16.8732 13.0336 16.9403 13.019 17.0139C12.9195 17.4901 12.5078 17.8369 12.0215 17.854C12.0055 17.854 11.9905 17.8583 11.9744 17.8583H11.4873C11.7926 18.5072 12.2884 19.0479 12.9087 19.4078L12.9166 19.4125C13.0699 19.5032 13.2291 19.5836 13.393 19.6532C13.4151 19.6625 13.4377 19.67 13.4598 19.6785C13.5894 19.7314 13.7233 19.7765 13.8597 19.8167C13.9061 19.8303 13.9522 19.845 13.9991 19.8572C14.1519 19.8967 14.307 19.928 14.4634 19.9507C14.5069 19.9571 14.5505 19.9614 14.594 19.9667C14.7664 19.9878 14.9399 19.9989 15.1137 20C16.2282 19.9835 17.2452 19.361 17.7666 18.3757Z" fill="currentColor" />
<path d="M4.75665 20H12.4959C11.5189 19.4347 10.8243 18.4846 10.5817 17.3822C10.5674 17.3178 10.5532 17.2536 10.5425 17.1893C10.5281 17.1107 10.5138 17.0285 10.5031 16.9464C10.4818 16.7746 10.4711 16.6017 10.4709 16.4285C10.4709 16.2357 10.4818 16.0464 10.4959 15.8536C10.4996 15.7893 10.5066 15.7214 10.5138 15.6572C10.5281 15.5357 10.5425 15.4108 10.5638 15.2893C10.5745 15.2107 10.5852 15.1286 10.5995 15.0464C10.6317 14.8857 10.6674 14.7214 10.7103 14.5535C10.7711 14.3179 10.8388 14.0822 10.9246 13.8464C10.7317 14.0321 10.5745 14.2 10.4531 14.3358C10.4496 14.3393 10.4496 14.3428 10.446 14.3428C10.396 14.4 10.3496 14.4536 10.3102 14.5C10.3076 14.5053 10.304 14.5102 10.2996 14.5143C10.2639 14.5572 10.2317 14.5964 10.2066 14.6321L10.1888 14.65C10.1674 14.6822 10.1461 14.7072 10.1317 14.7285C10.1245 14.7357 10.121 14.7429 10.1174 14.7464C10.1058 14.7624 10.0951 14.7792 10.0853 14.7964L10.0745 14.8071C10.071 14.8143 10.0675 14.8178 10.0675 14.8215C10.0675 14.825 10.0603 14.8286 10.0603 14.8286C10.0566 14.8354 10.0518 14.8415 10.046 14.8465C10.0397 14.8566 10.0325 14.8662 10.0246 14.875C10.0124 14.8889 9.99927 14.902 9.98523 14.9142C9.98172 14.9179 9.97455 14.9214 9.97104 14.9249C9.96356 14.9321 9.95517 14.9382 9.94601 14.9429C9.92801 14.9545 9.90894 14.9641 9.88879 14.9715C9.88528 14.9715 9.88528 14.975 9.88162 14.975C9.87811 14.975 9.8746 14.9786 9.87094 14.9786C9.86743 14.9786 9.86026 14.9821 9.85309 14.9857C9.82639 14.993 9.79877 14.9966 9.771 14.9965C9.76749 14.9965 9.76031 15 9.75665 15H9.75314C9.74597 15 9.74597 14.9965 9.7388 14.9965C9.70462 14.9974 9.67059 14.9915 9.63885 14.9786C9.63519 14.9786 9.63519 14.975 9.63168 14.975H9.62817C9.58759 14.9611 9.55096 14.9377 9.52106 14.9071C9.51083 14.8994 9.50229 14.8897 9.49603 14.8785C9.47421 14.8566 9.45605 14.8312 9.44247 14.8036C9.435 14.7899 9.42889 14.7755 9.42462 14.7607L9.41379 14.7285C9.40677 14.7214 9.40677 14.7107 9.40311 14.7C9.3996 14.6893 9.40677 14.6857 9.40311 14.6822C9.40677 14.6466 9.40784 14.6107 9.40677 14.575C9.57095 12.9959 10.1044 11.4777 10.9638 10.1428C12.3918 7.84271 14.5806 6.11526 17.1495 5.26077C17.6673 4.4313 17.9511 3.47748 17.9709 2.5C17.9709 1.11923 16.8517 0 15.4709 0C14.0903 0 12.9709 1.11923 12.9709 2.5C12.9709 3.88077 14.0903 5 15.4709 5C15.6682 5 15.8281 5.15991 15.8281 5.35721C15.8269 5.47562 15.7683 5.58609 15.671 5.65353C15.6121 5.69382 15.5423 5.71503 15.4709 5.71426H4.51022C4.15591 6.56723 3.72699 7.38708 3.22818 8.16422C3.01746 8.51791 2.79956 8.87863 2.58884 9.2572C1.55643 10.9897 0.959656 12.9469 0.849487 14.9608C0.835297 15.2036 0.828125 15.4572 0.828125 15.7143C0.828125 17.9178 2.73883 20 4.75665 20ZM3.33881 9.55719C3.36047 9.47052 3.41403 9.39529 3.4888 9.34647L4.1817 8.88214C4.52975 8.64975 4.98355 8.64975 5.33176 8.88214L5.6496 9.09286C5.75671 9.16794 5.89954 9.16794 6.00665 9.09286L6.32449 8.88214C6.6727 8.64975 7.1265 8.64975 7.47455 8.88214L7.79239 9.09286C7.89966 9.16794 8.04233 9.16794 8.1496 9.09286L8.46744 8.88214C8.81549 8.64975 9.26929 8.64975 9.61734 8.88214L10.3102 9.34647C10.4583 9.4426 10.5118 9.63379 10.4352 9.79279C10.4283 9.80911 10.42 9.82452 10.4103 9.83932C10.3446 9.93912 10.2333 9.99939 10.1139 10C10.0437 10.0008 9.97485 9.97955 9.91748 9.93927L9.22092 9.47861C9.1138 9.40353 8.97113 9.40353 8.86386 9.47861L8.54602 9.68933C8.19781 9.92172 7.74417 9.92172 7.39597 9.68933L7.07812 9.47861C6.97086 9.40353 6.82819 9.40353 6.72092 9.47861L6.40308 9.68933C6.05502 9.92172 5.60123 9.92172 5.25317 9.68933L4.93533 9.47861C4.82806 9.40353 4.68539 9.40353 4.57812 9.47861L3.88171 9.93927C3.80328 9.99191 3.707 10.011 3.61438 9.99222C3.52176 9.97345 3.44058 9.91837 3.38885 9.83932C3.33423 9.75601 3.31607 9.65408 3.33881 9.55719ZM2.41748 11.8465L3.11023 11.3821C3.45844 11.1497 3.91208 11.1497 4.26028 11.3821L4.57812 11.5929C4.68539 11.6679 4.82806 11.6679 4.93533 11.5929L5.25317 11.3821C5.60123 11.1497 6.05502 11.1497 6.40308 11.3821L6.72092 11.5929C6.82819 11.6679 6.97086 11.6679 7.07812 11.5929L7.39597 11.3821C7.74417 11.1497 8.19781 11.1497 8.54602 11.3821L9.23877 11.8465C9.36877 11.9337 9.42676 12.0956 9.38174 12.2456C9.33658 12.3956 9.1991 12.4988 9.04239 12.5C8.9722 12.5008 8.90353 12.4796 8.84601 12.4393L8.1496 11.9786C8.04233 11.9035 7.89966 11.9035 7.79239 11.9786L7.47455 12.1893C7.1265 12.4217 6.6727 12.4217 6.32449 12.1893L6.00665 11.9786C5.89954 11.9035 5.75671 11.9035 5.6496 11.9786L5.33176 12.1893C4.98355 12.4217 4.52975 12.4217 4.1817 12.1893L3.86386 11.9786C3.75659 11.9035 3.61392 11.9035 3.50665 11.9786L2.81024 12.4393C2.70465 12.5243 2.56015 12.5423 2.43701 12.4857C2.31387 12.429 2.23346 12.3076 2.22919 12.1721C2.22507 12.0366 2.298 11.9106 2.41748 11.8465ZM1.70306 14.7035L2.39597 14.2393C2.74417 14.007 3.19781 14.007 3.54602 14.2393L3.86386 14.4501C3.97113 14.525 4.1138 14.525 4.22092 14.4501L4.53891 14.2393C4.88696 14.007 5.34076 14.007 5.68881 14.2393L6.00665 14.4501C6.11392 14.525 6.25659 14.525 6.36386 14.4501L6.6817 14.2393C7.02975 14.007 7.48355 14.007 7.83176 14.2393L8.52451 14.7035C8.54953 14.7197 8.57227 14.7389 8.59241 14.7607C8.68686 14.8654 8.71097 15.0159 8.65375 15.1447C8.59668 15.2736 8.46912 15.3568 8.32812 15.3572C8.25793 15.358 8.18927 15.3368 8.13174 15.2965L7.43533 14.8357C7.32806 14.7607 7.18539 14.7607 7.07812 14.8357L6.76028 15.0464C6.41208 15.2788 5.95844 15.2788 5.61023 15.0464L5.29239 14.8357C5.18512 14.7607 5.04245 14.7607 4.93533 14.8357L4.61734 15.0464C4.26929 15.2788 3.81549 15.2788 3.46744 15.0464L3.1496 14.8357C3.04233 14.7607 2.89966 14.7607 2.79239 14.8357L2.09598 15.2965C2.01755 15.3493 1.92126 15.3685 1.82864 15.3496C1.73602 15.3308 1.65469 15.2756 1.60312 15.1964C1.56436 15.1382 1.5433 15.0699 1.54239 15C1.543 14.8805 1.60327 14.7693 1.70306 14.7035Z" fill="currentColor" />
<path d="M10.3643 12.7357C11.6536 10.7571 14.4536 7.57858 20.0179 5.40359C14.0178 5.89996 11.4 10.1785 10.3643 12.7357Z" fill="currentColor" />
<path d="M20.7456 5.89645C14.542 8.18924 11.7634 11.7357 10.6777 13.5786C12.022 12.3311 13.5113 11.2495 15.1135 10.3572C17.2137 9.17572 19.1145 7.67029 20.7456 5.89645Z" fill="currentColor" />
</g>
<defs>
<clipPath id="clip0_3195_441">
<rect width="20" height="20" fill="white" transform="translate(0.789062)"/>
</clipPath>
</defs>
</svg>
