<svg width="21" height="20" viewBox="0 0 21 20" fill="none" xmlns="http://www.w3.org/2000/svg">
<g clip-path="url(#clip0_3195_425)">
<path d="M16.8281 4.48151C18.2994 6.33942 18.1071 8.96866 18.1071 10.708H20.2548C20.2548 8.89389 20.2897 8.43399 20.1176 7.66541C19.7361 5.95169 18.5656 4.71176 16.8281 4.48151Z" fill="currentColor" />
<path d="M3.22469 10.708C3.22469 8.86536 3.19981 8.33313 3.33302 7.44492C3.48882 6.40396 3.8474 5.30472 4.50383 4.48196C2.94026 4.66888 1.63091 5.79407 1.21419 7.66495C1.04207 8.4343 1.07716 8.89313 1.07716 10.708H3.22469Z" fill="currentColor" />
<path d="M4.52161 7.62329C4.4032 8.41354 4.4267 8.86841 4.4267 10.708H6.04596V10.0835C6.04596 8.70025 7.17161 7.57477 8.55481 7.57477H12.7763C14.1595 7.57477 15.2852 8.70025 15.2852 10.0835V10.708H16.9044C16.9044 8.87695 16.9279 8.41446 16.8095 7.62329C16.598 6.20895 15.8584 4.4519 14.4754 4.4519C6.25654 4.4519 6.76328 4.43756 6.54462 4.48517C5.55387 4.69955 4.77903 5.90164 4.52161 7.62329Z" fill="currentColor" />
<path d="M15.1425 13.1302H18.631C18.9632 13.1302 19.2322 13.3997 19.2322 13.7315V18.0785C19.2322 18.4105 18.963 18.6797 18.631 18.6797H2.61859C2.28656 18.6797 2.0174 18.4105 2.0174 18.0785V13.7315C2.0174 13.3997 2.28641 13.1302 2.61859 13.1302H6.18961C6.02695 12.6599 6.04648 12.336 6.04648 11.9106H1.07715V19.3326C1.07715 19.6648 1.34631 19.9339 1.67834 19.9339H19.6538C19.9858 19.9339 20.2552 19.6648 20.2552 19.3326V11.9106H15.2857C15.2857 12.3322 15.3058 12.6581 15.1425 13.1302Z" fill="currentColor" />
<path d="M3.21973 14.3327V17.4773H3.22446H18.0294V14.3327C16.4676 14.3327 17.4119 14.3327 14.2825 14.3327C13.9639 14.5821 13.5862 14.7595 13.1743 14.8398C13.1743 16.0767 12.4107 16.7024 11.541 16.7024H9.71707C8.89783 16.7024 8.08331 16.1357 8.08331 14.8241C7.70016 14.738 7.34906 14.5673 7.04999 14.3327C6.52707 14.3327 3.50613 14.3327 3.21973 14.3327Z" fill="currentColor" />
<path d="M12.7768 8.77716H8.55533C7.83542 8.77716 7.24902 9.36325 7.24902 10.0835V12.2769C7.24902 13.0148 7.83054 13.6853 8.68472 13.6853C9.01447 13.6853 9.28607 13.9529 9.28607 14.2867V15.069C9.28607 15.3067 9.47925 15.4999 9.71729 15.4999H11.5412C11.7787 15.4999 11.9719 15.3067 11.9719 15.069C11.9719 14.6115 11.9719 14.7412 11.9719 14.2867C11.9719 14.0366 12.1251 13.822 12.3424 13.7315C12.6078 13.6212 13.2654 13.8234 13.7946 13.1302C14.1216 12.7025 14.0831 12.3201 14.0831 11.9106C14.0831 11.3007 14.0831 10.692 14.0831 10.0835C14.0831 9.36325 13.4967 8.77716 12.7768 8.77716ZM9.65244 11.0992C9.65244 11.4325 9.3819 11.7004 9.05109 11.7004C8.72012 11.7004 8.44989 11.4322 8.44989 11.0992C8.44989 10.8376 8.44989 10.6645 8.44989 10.3954C8.44989 10.0635 8.71921 9.79416 9.05109 9.79416C9.38297 9.79416 9.65244 10.0635 9.65244 10.3954V11.0992ZM11.2673 12.9675C11.2673 13.299 10.9981 13.5687 10.6661 13.5687C10.3342 13.5687 10.0649 13.2993 10.0649 12.9675C10.0649 12.2527 10.0302 12.1181 10.1999 11.9106C10.3098 11.7751 10.4781 11.6884 10.6661 11.6884C10.9977 11.6884 11.2673 11.9579 11.2673 12.2897V12.9675ZM12.7704 11.3092C12.6854 11.5378 12.4654 11.7004 12.2069 11.7004C11.8758 11.7004 11.6056 11.4322 11.6056 11.0992C11.6056 10.8376 11.6056 10.6645 11.6056 10.3954C11.6056 10.0635 11.875 9.79416 12.2069 9.79416C12.5391 9.79416 12.8081 10.0635 12.8081 10.3954C12.8081 11.1607 12.8191 11.1794 12.7704 11.3092Z" fill="currentColor" />
<path d="M19.9252 1.97052H19.5607V1.60599C19.5607 1.27396 19.2915 1.00479 18.9595 1.00479C18.6275 1.00479 18.3582 1.27396 18.3582 1.60599V1.97052H17.9938C17.6617 1.97052 17.3926 2.23969 17.3926 2.57172C17.3926 2.90375 17.6617 3.17291 17.9938 3.17291H18.3582V3.53745C18.3582 3.86948 18.6275 4.13864 18.9595 4.13864C19.2915 4.13864 19.5607 3.86948 19.5607 3.53745V3.17291H19.9252C20.2573 3.17291 20.5264 2.90375 20.5264 2.57172C20.5264 2.23969 20.2573 1.97052 19.9252 1.97052Z" fill="currentColor" />
<path d="M14.3619 2.20734H14.7265V2.57172C14.7265 2.90375 14.9956 3.17291 15.3277 3.17291C15.6597 3.17291 15.9289 2.90375 15.9289 2.57172V2.20734H16.2934C16.6254 2.20734 16.8946 1.93802 16.8946 1.60599C16.8946 1.27396 16.6254 1.00479 16.2934 1.00479H15.9289V0.640259C15.9289 0.308228 15.6597 0.0390625 15.3277 0.0390625C14.9956 0.0390625 14.7265 0.308228 14.7265 0.640259V1.00479H14.3619C14.0299 1.00479 13.7607 1.27396 13.7607 1.60599C13.7607 1.93802 14.0299 2.20734 14.3619 2.20734Z" fill="currentColor" />
<path d="M4.7594 2.20734H5.12393V2.57172C5.12393 2.90375 5.3931 3.17291 5.72513 3.17291C6.05716 3.17291 6.32632 2.90375 6.32632 2.57172V2.20734H6.69086C7.02289 2.20734 7.29205 1.93802 7.29205 1.60599C7.29205 1.27396 7.02289 1.00479 6.69086 1.00479H6.32632V0.640259C6.32632 0.308228 6.05716 0.0390625 5.72513 0.0390625C5.3931 0.0390625 5.12393 0.308228 5.12393 0.640259V1.00479H4.7594C4.42737 1.00479 4.1582 1.27396 4.1582 1.60599C4.1582 1.93802 4.42737 2.20734 4.7594 2.20734Z" fill="currentColor" />
<path d="M1.4921 3.17291V3.53745C1.4921 3.86948 1.76126 4.13864 2.09329 4.13864C2.42532 4.13864 2.69464 3.86948 2.69464 3.53745V3.17291H3.05902C3.39105 3.17291 3.66022 2.90375 3.66022 2.57172C3.66022 2.23969 3.39105 1.97052 3.05902 1.97052H2.69464V1.60599C2.69464 1.27396 2.42532 1.00479 2.09329 1.00479C1.76126 1.00479 1.4921 1.27396 1.4921 1.60599V1.97052H1.12756C0.795532 1.97052 0.526367 2.23969 0.526367 2.57172C0.526367 2.90375 0.795532 3.17291 1.12756 3.17291H1.4921Z" fill="currentColor" />
</g>
<defs>
<clipPath id="clip0_3195_425">
<rect width="20" height="20" fill="white" transform="translate(0.526367)"/>
</clipPath>
</defs>
</svg>
