<svg width="21" height="20" viewBox="0 0 21 20" fill="none" xmlns="http://www.w3.org/2000/svg">
<g clip-path="url(#clip0_3195_417)">
<path d="M18.2082 6.63066C18.1159 6.41539 17.9041 6.27586 17.6698 6.27586H13.597L16.3111 0.847979C16.4019 0.666414 16.3922 0.45063 16.2855 0.277894C16.1787 0.105118 15.99 0 15.7869 0L7.62795 0.000468755C7.38838 0.000468755 7.17295 0.14633 7.08396 0.368793L3.31829 9.78222C3.24607 9.96273 3.2681 10.1673 3.37712 10.3283C3.48611 10.4893 3.66787 10.5858 3.86232 10.5858H8.64543L5.20117 19.1964C5.09679 19.4573 5.1923 19.7556 5.42894 19.9073C5.52609 19.9696 5.6359 20 5.74496 20C5.90122 20 6.05602 19.9376 6.17001 19.8176L18.0946 7.26532C18.2559 7.09551 18.3006 6.8459 18.2082 6.63066Z" fill="currentColor" />
<path d="M18.2077 6.63066C18.1154 6.41539 17.9036 6.27586 17.6694 6.27586H13.5966L16.3107 0.847979C16.4015 0.666414 16.3918 0.45063 16.2851 0.277894C16.1783 0.105118 15.9896 0 15.7865 0L10.7656 0.000273441V14.9797L18.0941 7.26544C18.2555 7.09551 18.3002 6.8459 18.2077 6.63066Z" fill="currentColor" />
</g>
<defs>
<clipPath id="clip0_3195_417">
<rect width="20" height="20" fill="white" transform="translate(0.765625)"/>
</clipPath>
</defs>
</svg>

