<svg width="130" height="91" viewBox="0 0 130 91" fill="none" xmlns="http://www.w3.org/2000/svg">
<path d="M129.012 89.8901L1.06494 1.01611" stroke="#13FF00" stroke-miterlimit="10"/>
<path d="M129.522 30.7507L35.3921 1" stroke="#13FF00" stroke-miterlimit="10"/>
<path d="M1 24.9358L43.9028 90.3728" stroke="#13FF00" stroke-miterlimit="10"/>
<path d="M129.255 30.7749H43.9839V90.2119H129.255V30.7749Z" stroke="#13FF00" stroke-miterlimit="10"/>
<path d="M35.1086 1.01611H1.06494V24.7427H35.1086V1.01611Z" stroke="#13FF00" stroke-miterlimit="10"/>
<path d="M53.3206 39.9919H56.8432C59.5155 39.9919 60.7221 40.4263 60.7221 42.2198C60.7221 44.0134 59.3697 43.9088 58.3899 43.9973V44.5925C59.7746 44.6568 61.3942 44.6086 61.3942 46.6675C61.3942 48.7265 59.2806 49.0724 56.8351 49.0724H53.3206V40V39.9919ZM57.1995 43.2654C57.7825 43.2654 58.2522 43.3539 58.2522 42.7104C58.2522 42.1153 57.7825 42.1555 57.1995 42.1555H55.7985V43.2654H57.1995ZM57.1833 46.9088C58.2846 46.9088 58.9162 47.0134 58.9162 46.1769C58.9162 45.2922 58.2846 45.4289 57.1833 45.4289H55.7985V46.9088H57.1833Z" fill="#131313"/>
<path d="M66.6417 42.1555V46.9088H68.7309V49.0724H62.0825V46.9088H64.1718V42.1555H62.0825V39.9919H68.7309V42.1555H66.6417Z" fill="#131313"/>
<path d="M73.7436 39.8633C76.0353 39.8633 78.0112 41.2547 78.2784 43.2333H75.8004C75.5899 42.3325 74.942 42.0268 73.7436 42.0268C72.3588 42.0268 71.5004 42.622 71.5004 44.5282C71.5004 46.4343 72.205 47.0375 73.4682 47.0375C74.4805 47.0375 75.2012 46.6032 75.2174 45.7507H73.533V43.9249H78.4161C79.1935 43.9249 79.6469 44.3753 79.6469 45.1716V49.0724H77.1609V46.0483L77.6387 44.5282H77.0313C77.0151 47.2467 75.93 49.2011 73.363 49.2011C70.6016 49.2011 69.0225 47.3512 69.0225 44.5282C69.0225 41.7051 71.0955 39.8713 73.7436 39.8713V39.8633Z" fill="#131313"/>
<path d="M61.0703 54.5254C61.0703 57.4209 59.1916 57.7989 56.8837 57.7989H55.7905V60.3324H53.3125V51.26H56.8756C59.1835 51.26 61.0622 51.63 61.0622 54.5335L61.0703 54.5254ZM58.5924 54.5254C58.5924 53.4798 58.1389 53.4155 57.0456 53.4155H55.7905V55.6273H57.0456C58.1389 55.6273 58.5924 55.563 58.5924 54.5174V54.5254Z" fill="#131313"/>
<path d="M66.0181 53.4156V58.169H68.1074V60.3325H61.459V58.169H63.5483V53.4156H61.459V51.2521H68.1074V53.4156H66.0181Z" fill="#131313"/>
<path d="M73.2657 51.1233C75.8976 51.1233 77.6467 52.5147 77.922 54.7506H75.4441C75.2335 53.7694 74.3428 53.2788 73.29 53.2788C71.9053 53.2788 70.8768 54.0348 70.8768 55.7801C70.8768 57.5254 71.8972 58.2895 73.29 58.2895C74.3428 58.2895 75.2335 57.7909 75.4441 56.8096H77.922C77.6467 59.0616 75.8976 60.4531 73.2657 60.4531C70.2695 60.4531 68.407 58.4343 68.407 55.7801C68.407 53.126 70.2776 51.1233 73.2657 51.1233Z" fill="#131313"/>
<path d="M86.3519 53.4156H83.4367V60.3325H80.9587V53.4156H78.0435V51.2521H86.3519V53.4156Z" fill="#131313"/>
<path d="M87.1133 51.2521H89.5912V55.7481C89.5912 57.2762 89.5265 58.2977 91.4295 58.2977C93.3325 58.2977 93.3001 57.2843 93.3001 55.7481V51.2521H95.7781V56.9545C95.7781 59.2226 94.2395 60.4531 91.4376 60.4531C88.6357 60.4531 87.1214 59.2145 87.1214 56.9545V51.2521H87.1133Z" fill="#131313"/>
<path d="M96.7659 51.2521H100.499C102.677 51.2521 104.775 51.7507 104.775 53.7856C104.775 55.3298 103.35 55.6676 102.208 55.7802V56.3754H103.633C104.427 56.3754 104.888 56.8419 104.888 57.6381V60.3325H102.41V57.3164H99.2358V60.3325H96.7578V51.2601L96.7659 51.2521ZM100.499 55.1529C101.6 55.1529 102.297 55.2172 102.297 54.2923C102.297 53.3674 101.6 53.4156 100.499 53.4156H99.2439V55.1529H100.499Z" fill="#131313"/>
<path d="M106.014 51.2521H112.873V53.4156H108.492V54.7025H112.225V56.866H108.492V58.169H112.873V60.3325H106.014V51.2601V51.2521Z" fill="#131313"/>
<path d="M53.3206 62.5121H60.0499V64.6756H55.7985V66.8874L59.8799 66.63V68.8177L55.7985 69.0751V71.5845H53.3206V62.5121Z" fill="#131313"/>
<path d="M60.9165 62.5121H67.7754V64.6756H63.3945V65.9625H67.1276V68.126H63.3945V69.429H67.7754V71.5925H60.9165V62.5201V62.5121Z" fill="#131313"/>
<path d="M72.9662 71.7212C69.638 71.7212 68.2856 70.4102 68.2856 68.0537H70.7636C70.7636 69.1475 71.2657 69.5577 73.0553 69.5577C74.3024 69.5577 74.5615 69.3808 74.5615 69.0832C74.5615 68.6489 73.6384 68.3754 72.3589 67.925C70.3749 67.2413 68.7067 66.7186 68.7067 64.8606C68.7067 63.2521 70.0267 62.3915 72.4399 62.3915C75.2823 62.3915 76.667 63.7186 76.667 65.6489H74.189C74.189 64.7239 73.4521 64.555 72.4399 64.555C71.6382 64.555 71.1847 64.6676 71.1847 64.9652C71.1847 65.2226 71.1685 65.2708 72.6261 65.7775C74.27 66.3486 77.0476 67.1046 77.0476 69.0108C77.0476 70.6596 75.8329 71.7293 72.9743 71.7293L72.9662 71.7212Z" fill="#131313"/>
<path d="M85.0807 64.6756H82.1654V71.5925H79.6875V64.6756H76.7722V62.5121H85.0807V64.6756Z" fill="#131313"/>
<path d="M90.5306 64.6756V69.429H92.6198V71.5925H85.9714V69.429H88.0607V64.6756H85.9714V62.5121H92.6198V64.6756H90.5306Z" fill="#131313"/>
<path d="M95.9076 62.5121L98.1507 70.9813H98.758L101.017 62.5121H103.536L101.017 71.5845H95.8995L93.3972 62.5121H95.9076Z" fill="#131313"/>
<path d="M109.156 68.9384H105.447L104.743 71.5925H102.232L104.734 62.5201H109.852L112.371 71.5925H109.852L109.156 68.9384ZM108.573 66.7748L107.601 63.1153H106.994L106.022 66.7748H108.573Z" fill="#131313"/>
<path d="M113.14 70.5067V62.5121H115.618V69.5496L119.999 69.4209V71.5845L114.387 71.7132C113.585 71.7292 113.14 71.303 113.14 70.5067Z" fill="#131313"/>
<path d="M82.0117 76.7158H83.0887V78.067L82.8782 78.6461H83.1454C83.2993 78.3003 83.526 77.9303 84.2548 77.9303C85.097 77.9303 85.4614 78.622 85.4614 79.4021C85.4614 80.1823 85.097 80.8901 84.2548 80.8901C83.526 80.8901 83.2993 80.5281 83.1454 80.1743H82.8782L83.0887 80.7614V80.8418H82.0117V76.7239V76.7158ZM83.7204 79.9491C84.182 79.9491 84.3844 79.7802 84.3844 79.4021C84.3844 79.0241 84.182 78.8713 83.7204 78.8713C83.2588 78.8713 83.0887 79.0322 83.0887 79.4021C83.0887 79.7721 83.2669 79.9491 83.7204 79.9491Z" fill="#131313"/>
<path d="M89.0406 77.9866L87.7045 80.6086V81.5254C87.7045 81.8793 87.5101 82.0643 87.1781 82.0563L85.6557 82.0241V81.0831H86.6194V80.6166L85.2832 77.9946H86.506L87.0324 79.3137V79.8606H87.2915V79.3137L87.8098 77.9946H89.0406V77.9866Z" fill="#131313"/>
<path d="M107.059 76.5793C106.573 76.1128 105.917 75.8232 105.18 75.8232C103.706 75.8232 102.516 76.9975 102.516 78.4372C102.516 79.8769 103.706 81.0511 105.18 81.0511C105.909 81.0511 106.573 80.7616 107.059 80.2951V80.9144H108.03V75.9519H107.059V76.5712V76.5793ZM105.269 80.2227C104.281 80.2227 103.479 79.4265 103.479 78.4452C103.479 77.464 104.281 76.6677 105.269 76.6677C106.257 76.6677 107.059 77.464 107.059 78.4452C107.059 79.4265 106.257 80.2227 105.269 80.2227Z" fill="#131313"/>
<path d="M101.965 77.3996C101.965 76.6034 101.309 75.9519 100.507 75.9519H96.9604V80.9144H97.9322V78.8473H99.4303L101.131 80.9144H102.37L100.621 78.8473C101.374 78.791 101.965 78.1637 101.965 77.4077V77.3996ZM97.9322 76.7803H100.362C100.71 76.7803 100.985 77.0618 100.985 77.3996C100.985 77.7374 100.702 78.0189 100.362 78.0189H97.9322V76.7803Z" fill="#131313"/>
<path d="M112.533 75.9519H108.986V80.9144H109.958V78.8473H112.533C113.334 78.8473 113.99 78.1959 113.99 77.3996C113.99 76.6034 113.334 75.9519 112.533 75.9519ZM112.395 78.0189H109.966V76.7803H112.395C112.743 76.7803 113.019 77.0618 113.019 77.3996C113.019 77.7374 112.735 78.0189 112.395 78.0189Z" fill="#131313"/>
<path d="M93.0086 78.0271V78.8556H95.2031C95.0168 79.6357 94.3042 80.2228 93.462 80.2228C92.4741 80.2228 91.6724 79.4266 91.6724 78.4454C91.6724 77.4641 92.4741 76.6679 93.462 76.6679C94.0613 76.6679 94.5957 76.9655 94.9197 77.4159H95.9886C95.5675 76.4829 94.5957 75.8314 93.462 75.8314C91.9396 75.8314 90.7087 77.0057 90.7087 78.4454C90.7087 79.885 91.9396 81.0593 93.462 81.0593C94.9844 81.0593 96.2153 79.885 96.2153 78.4454C96.2153 78.3086 96.2072 78.1639 96.1829 78.0352H93.0167L93.0086 78.0271Z" fill="#131313"/>
<path d="M119.853 78.4372C119.853 76.9895 118.622 75.8232 117.1 75.8232C115.578 75.8232 114.347 76.9975 114.347 78.4372C114.347 79.8769 115.578 81.0511 117.1 81.0511C118.234 81.0511 119.205 80.3996 119.627 79.4667H118.558C118.234 79.9171 117.699 80.2147 117.1 80.2147C116.25 80.2147 115.545 79.6356 115.359 78.8474H119.821C119.845 78.7106 119.853 78.5739 119.853 78.4372ZM115.359 78.027C115.545 77.2468 116.258 76.6597 117.1 76.6597C117.942 76.6597 118.655 77.2388 118.841 78.027H115.359Z" fill="#131313"/>
</svg>
