<svg viewBox="0 0 80 80" xmlns="http://www.w3.org/2000/svg" xmlns:xlink="http://www.w3.org/1999/xlink"><style>:root>svg{display:none}:root>svg:target{display:block}</style><svg fill="none" viewBox="0 0 20 20" id="action" xmlns="http://www.w3.org/2000/svg"><g clip-path="url(#aaa)" fill="currentColor"><path d="M12.898 15.508c0-1.069-.674-1.69-1.965-2.786-.291-.25-.606-.515-.931-.81-.371.34-.724.64-1.047.916-1.288 1.089-1.852 1.621-1.852 2.68a2.897 2.897 0 1 0 5.795 0Z"/><path d="M13.674 3.362c-1-.849-2.034-1.726-3.079-2.77L10 0l-.583.593C7.539 2.478 6.65 5.373 6.265 7.109a5.034 5.034 0 0 1-.649-1.487L5.26 4.258l-1.027.964c-1.8 1.69-3 3.365-3 6.049a8.685 8.685 0 0 0 6.5 8.483c.47.12.95.202 1.434.246a4.576 4.576 0 0 1-3.738-4.492c0-1.875 1.131-2.833 2.44-3.951.468-.398 1-.849 1.538-1.39l.593-.59.59.59c.48.48.96.887 1.424 1.282 1.314 1.114 2.554 2.167 2.554 4.06a4.574 4.574 0 0 1-3.714 4.486 8.759 8.759 0 0 0 7.913-8.723c0-3.585-2.36-5.589-5.093-7.91Z"/></g><defs><clipPath id="aaa"><path fill="#fff" d="M0 0h20v20H0z"/></clipPath></defs></svg><svg fill="none" viewBox="0 0 24 24" id="arr" xmlns="http://www.w3.org/2000/svg"><path d="m9 18 6-6-6-6" stroke="currentColor" stroke-linecap="round" stroke-linejoin="round"/></svg><svg fill="none" viewBox="0 0 24 24" id="audio" xmlns="http://www.w3.org/2000/svg"><g clip-path="url(#aca)"><path fill-rule="evenodd" clip-rule="evenodd" d="M20.25 4.5a.75.75 0 1 1-.001-1.499.75.75 0 0 1 .001 1.499ZM12 21a9 9 0 1 1 0-18 9 9 0 0 1 0 18Zm8.25 0a.75.75 0 1 1-.001-1.499A.75.75 0 0 1 20.25 21Zm-16.5 0a.75.75 0 1 1-.001-1.499A.75.75 0 0 1 3.75 21Zm0-18a.75.75 0 1 1 .001 1.499A.75.75 0 0 1 3.75 3ZM21 0H3a3 3 0 0 0-3 3v18a3 3 0 0 0 3 3h18a3 3 0 0 0 3-3V3a3 3 0 0 0-3-3Zm-9 16.5a4.5 4.5 0 1 1 .001-9.001A4.5 4.5 0 0 1 12 16.5Zm0-12a7.5 7.5 0 1 0 .002 15.002A7.5 7.5 0 0 0 12 4.5ZM12 9a3 3 0 1 0 0 6 3 3 0 0 0 0-6Z" fill="currentColor"/></g><defs><clipPath id="aca"><path fill="#fff" d="M0 0h24v24H0z"/></clipPath></defs></svg><svg fill="none" viewBox="0 0 21 20" id="brends" xmlns="http://www.w3.org/2000/svg"><g clip-path="url(#ada)" fill="currentColor"><path d="M17.436 13.062A8.012 8.012 0 0 1 10.5 17.07a8.013 8.013 0 0 1-6.936-4.008A8.114 8.114 0 0 0 .5 19.414c0 .323.262.586.586.586h18.828a.586.586 0 0 0 .586-.586 8.113 8.113 0 0 0-3.064-6.352ZM5.002 1.29H2.688a.586.586 0 0 0-.586.585c0 1.132.436 2.164 1.148 2.936A7.362 7.362 0 0 1 5.002 1.29ZM18.898 1.875a.586.586 0 0 0-.585-.586h-2.315a7.362 7.362 0 0 1 1.752 3.522 4.318 4.318 0 0 0 1.148-2.936ZM4.29 7.305h1.09c.218-.723.89-1.25 1.683-1.25.792 0 1.464.527 1.682 1.25h3.51c.218-.723.89-1.25 1.682-1.25.793 0 1.465.527 1.683 1.25h1.09V6.21A6.218 6.218 0 0 0 10.5 0a6.218 6.218 0 0 0-6.21 6.21v1.095Zm7.46-4.14H13a.586.586 0 0 1 0 1.17h-1.25a.586.586 0 0 1 0-1.17Zm-3.75 0h1.25a.586.586 0 0 1 0 1.17H8a.586.586 0 0 1 0-1.17Z"/><path d="M7.063 7.227a.586.586 0 0 0-.586.585v.665H4.25a.586.586 0 0 0-.586.585 6.844 6.844 0 0 0 6.836 6.836 6.844 6.844 0 0 0 6.836-6.835.586.586 0 0 0-.586-.586h-2.227v-.665a.586.586 0 1 0-1.171 0v.665H7.648v-.665a.586.586 0 0 0-.585-.585Z"/></g><defs><clipPath id="ada"><path fill="#fff" transform="translate(.5)" d="M0 0h20v20H0z"/></clipPath></defs></svg><svg fill="none" viewBox="0 0 24 24" id="catalog" xmlns="http://www.w3.org/2000/svg"><rect x="2.182" y="5" width="19.636" height="1.455" rx=".727" fill="#4888FF"/><rect x="2.182" y="15.909" width="19.636" height="1.455" rx=".727" fill="#4888FF"/><rect x="2.182" y="10.455" width="13.091" height="1.455" rx=".727" fill="#4888FF"/></svg><svg viewBox="0 0 24 24" id="chest" xmlns="http://www.w3.org/2000/svg"><path d="M.703 10.194H0v6.17a5.408 5.408 0 0 1 2.531.811v-6.981H.703ZM19.562 2.547H4.438A4.443 4.443 0 0 0 0 6.985v1.803H9.152V7.483h5.696v1.305H24V6.985a4.443 4.443 0 0 0-4.438-4.438ZM14.848 10.194v.78c0 .255-.035.502-.098.737h5.313v-1.517h-5.215ZM23.297 10.194h-1.828v6.981A5.407 5.407 0 0 1 24 16.363v-6.17h-.703ZM13.87 13.118a2.835 2.835 0 0 1-3.74 0H3.937v5.318a5.417 5.417 0 0 1 1.153 3.017h13.82a5.416 5.416 0 0 1 1.152-3.017v-5.318H13.87ZM20.32 21.453H24v-3.679a4.044 4.044 0 0 0-3.68 3.68ZM0 17.774v3.68h3.68A4.044 4.044 0 0 0 0 17.773ZM9.152 10.973v-.78H3.938v1.518H9.25a2.842 2.842 0 0 1-.098-.738ZM10.559 8.89v2.083c0 .795.646 1.442 1.441 1.442s1.441-.647 1.441-1.442V8.89H10.56Z"/></svg><svg fill="none" viewBox="0 0 16 16" id="clock" xmlns="http://www.w3.org/2000/svg"><path d="M7.5 2A5.506 5.506 0 0 0 2 7.5C2 10.533 4.467 13 7.5 13S13 10.533 13 7.5 10.533 2 7.5 2Zm2.616 8.345a.456.456 0 0 1-.648 0L7.176 8.053a.456.456 0 0 1-.134-.324V4.75a.458.458 0 1 1 .916 0v2.79l2.158 2.157a.459.459 0 0 1 0 .648Z" fill="#343A3F" opacity=".3"/></svg><svg viewBox="0 0 24 24" id="computer" xmlns="http://www.w3.org/2000/svg"><path d="M12 5v14M5 12h14"/></svg><svg fill="none" viewBox="0 0 24 24" id="computers" xmlns="http://www.w3.org/2000/svg"><path d="M21.317 16.661h-.008V4.372H2.672v12.29h.01L0 18.766v.86h24v-.86l-2.683-2.106ZM4.374 5.61l15.47.023-.123 9.805-15.38.062.033-9.89Zm6.239 13.163.376-.542h2.439l.45.542h-3.265ZM2.574 17.74l.885-.616h17.227l1.229.685-19.34-.07Z" fill="currentColor"/></svg><svg fill="none" viewBox="0 0 24 24" id="earth" xmlns="http://www.w3.org/2000/svg"><path d="M12 1.5C6.21 1.5 1.5 6.18 1.5 12c0 5.803 4.696 10.5 10.5 10.5 5.813 0 10.5-4.706 10.5-10.5 0-5.815-4.708-10.5-10.5-10.5ZM10.79 3.968C9.627 4.722 8.815 5.3 8.635 5.942c-.314 1.122 1.683 1.938 2.236 2.43 1.004.89.543 3.098-.508 4.082-1.05.984-1.44 1.982-1.324 2.732.15.98 1.26 2.538 1.856 3.504.595.967-.04 1.185-.87.692-.616-.367-3.457-1.06-4.32-1.687-.863-.627-1.134-2.776-.86-3.67.272-.893.593-3.273-.769-4.06a2.536 2.536 0 0 1-.808-.715c1.21-3.832 4.866-6.565 9.103-6.396a38.09 38.09 0 0 1-1.582 1.114Zm8.974 9.737c-1.169-.122-2.526-.308-2.782-.448-1.07-.588-.718-1.391-.275-2.558.444-1.167-1.783-2.188-1.783-3.59 0-1.37.877-2.28 1.916-2.876A9.156 9.156 0 0 1 21.154 12a9.1 9.1 0 0 1-.772 3.677c-.047-.988.05-1.902-.619-1.972Z" fill="#343A3F" fill-opacity=".5"/></svg><svg fill="none" viewBox="0 0 21 20" id="events" xmlns="http://www.w3.org/2000/svg"><g clip-path="url(#aka)" fill="currentColor"><path d="M11.987 17.14a.35.35 0 0 0 .333-.275c.011-.058.027-.114.042-.17.009-.035.015-.07.025-.103.007-.024.017-.048.025-.071A3.208 3.208 0 0 1 13.453 15H11.34a6.854 6.854 0 0 0-.119.781 6.579 6.579 0 0 0-.035.647 3.826 3.826 0 0 0 .068.688l.004.027h.715l.015-.002ZM12.296 2.036c.01-.079.021-.154.04-.229.006-.043.02-.085.031-.128.018-.068.036-.136.061-.204.013-.042.029-.084.046-.125.026-.064.05-.129.08-.19.017-.039.038-.081.056-.12.032-.061.068-.122.1-.18.025-.039.047-.074.068-.11.04-.06.086-.121.129-.179.021-.032.043-.06.068-.092.058-.073.12-.142.185-.208.015-.014.025-.028.036-.039.078-.078.16-.152.246-.221L13.453 0H3.328a2.5 2.5 0 1 0 0 5h10.125a3.214 3.214 0 0 1-1.175-2.854 1.15 1.15 0 0 1 .018-.11Zm-8.968-.607c-.489 0-.916.33-1.04.803a.354.354 0 0 1-.625.13.357.357 0 0 1-.063-.308A1.786 1.786 0 0 1 3.328.714a.357.357 0 1 1 0 .715Zm2.5 0H4.757a.357.357 0 0 1 0-.715h1.071a.357.357 0 1 1 0 .715ZM17.767 18.376c.259-.543.402-1.393-.386-2.37A2.511 2.511 0 0 0 15.471 15c-.082 0-.16.014-.239.021-.068.007-.137.007-.204.02-.05.008-.096.026-.145.038a2.506 2.506 0 0 0-1.717 1.465c-.007.015-.017.028-.023.043-.026.069-.042.143-.062.215-.02.071-.047.138-.062.212-.1.476-.511.823-.998.84-.016 0-.03.004-.047.004h-.487c.306.65.801 1.19 1.422 1.55l.008.005c.153.09.312.17.476.24.022.01.045.017.067.026.13.052.263.098.4.138.046.013.092.028.14.04.152.04.307.071.463.094l.131.016c.172.02.346.032.52.033a3.052 3.052 0 0 0 2.653-1.624Z"/><path d="M4.757 20h7.739a4.024 4.024 0 0 1-1.954-2.81 4.248 4.248 0 0 1-.072-.76 7.838 7.838 0 0 1 .044-.773c.014-.121.029-.246.05-.368.01-.078.021-.16.036-.243.032-.16.067-.325.11-.492.061-.236.129-.472.215-.708-.193.186-.35.354-.472.49-.003.003-.003.007-.007.007a14.92 14.92 0 0 0-.146.171 1.94 1.94 0 0 0-.093.118l-.018.018c-.022.032-.043.057-.057.079-.008.007-.011.014-.015.017a.544.544 0 0 0-.032.05l-.01.011c-.004.007-.007.01-.007.014s-.008.008-.008.008a.064.064 0 0 1-.014.018.412.412 0 0 1-.06.068c-.004.003-.011.006-.015.01a.29.29 0 0 1-.082.047c-.004 0-.004.003-.007.003-.004 0-.007.004-.011.004a.06.06 0 0 0-.018.007.307.307 0 0 1-.082.01c-.004 0-.01.004-.014.004h-.004c-.007 0-.007-.004-.014-.004a.248.248 0 0 1-.1-.017c-.004 0-.004-.004-.007-.004h-.004a.274.274 0 0 1-.107-.068.092.092 0 0 1-.025-.028.284.284 0 0 1-.071-.118l-.011-.032c-.007-.008-.007-.018-.01-.029-.004-.01.003-.014 0-.018.003-.035.004-.071.003-.107.164-1.58.697-3.097 1.557-4.432a11.585 11.585 0 0 1 6.185-4.882 5.42 5.42 0 0 0 .822-2.761 2.5 2.5 0 1 0-2.5 2.5.357.357 0 1 1 0 .714H4.51a15.648 15.648 0 0 1-1.283 2.45c-.21.354-.428.715-.64 1.093A12.473 12.473 0 0 0 .85 14.961c-.014.243-.02.496-.02.753C.828 17.918 2.738 20 4.756 20ZM3.339 9.557a.354.354 0 0 1 .15-.21l.693-.465a1.036 1.036 0 0 1 1.15 0l.318.21c.107.076.25.076.357 0l.317-.21a1.036 1.036 0 0 1 1.15 0l.318.21c.108.076.25.076.358 0l.317-.21a1.035 1.035 0 0 1 1.15 0l.693.464a.35.35 0 0 1 .1.493.357.357 0 0 1-.296.161.335.335 0 0 1-.197-.06l-.696-.461a.311.311 0 0 0-.357 0l-.318.21a1.036 1.036 0 0 1-1.15 0l-.318-.21a.311.311 0 0 0-.357 0l-.318.21a1.035 1.035 0 0 1-1.15 0l-.318-.21a.311.311 0 0 0-.357 0l-.696.46a.354.354 0 0 1-.493-.1.363.363 0 0 1-.05-.282Zm-.922 2.29.693-.465a1.036 1.036 0 0 1 1.15 0l.318.21c.107.076.25.076.357 0l.318-.21a1.035 1.035 0 0 1 1.15 0l.318.21c.107.076.25.076.357 0l.318-.21a1.036 1.036 0 0 1 1.15 0l.693.465a.357.357 0 0 1-.197.653.336.336 0 0 1-.196-.06l-.696-.461a.311.311 0 0 0-.358 0l-.317.21a1.036 1.036 0 0 1-1.15 0l-.318-.21a.311.311 0 0 0-.357 0l-.318.21a1.036 1.036 0 0 1-1.15 0l-.318-.21a.311.311 0 0 0-.357 0l-.697.46a.357.357 0 1 1-.393-.592Zm-.714 2.857.693-.465a1.036 1.036 0 0 1 1.15 0l.318.211c.107.075.25.075.357 0l.318-.21a1.036 1.036 0 0 1 1.15 0l.318.21c.107.075.25.075.357 0l.318-.21a1.036 1.036 0 0 1 1.15 0l.693.463a.357.357 0 0 1-.393.593l-.697-.46a.312.312 0 0 0-.357 0l-.318.21a1.036 1.036 0 0 1-1.15 0l-.318-.21a.311.311 0 0 0-.357 0l-.318.21a1.035 1.035 0 0 1-1.15 0l-.317-.21a.312.312 0 0 0-.358 0l-.696.46a.353.353 0 0 1-.493-.1.363.363 0 0 1-.06-.196c0-.12.06-.23.16-.296Z"/><path d="M10.364 12.736c1.29-1.979 4.09-5.157 9.654-7.332-6 .496-8.618 4.774-9.654 7.332Z"/><path d="M20.746 5.896c-6.204 2.293-8.983 5.84-10.068 7.683a22.905 22.905 0 0 1 4.435-3.222 22.913 22.913 0 0 0 5.633-4.46Z"/></g><defs><clipPath id="aka"><path fill="#fff" transform="translate(.79)" d="M0 0h20v20H0z"/></clipPath></defs></svg><svg fill="none" viewBox="0 0 24 24" id="filling" xmlns="http://www.w3.org/2000/svg"><g clip-path="url(#ala)"><path fill-rule="evenodd" clip-rule="evenodd" d="M14.829.005h-.001L.925 2.324a.414.414 0 0 0-.346.408v18.538c0 .202.147.375.346.408l13.904 2.317a.408.408 0 0 0 .126.002l8.11-1.159a.414.414 0 0 0 .356-.41V1.572a.414.414 0 0 0-.356-.41L14.955.005a.417.417 0 0 0-.127.001Zm.481 17.974v5.13l1.49-.213v-6.241l-1.49 1.324ZM1.407 15.964l13.076 2.18v4.954l-13.076-2.18v-4.954ZM20.524 1.635v11.523c0 .119-.05.231-.139.31l-2.758 2.451v6.859l4.966-.71V1.932l-2.069-.296ZM2.366 15.285l12.117 2.02v-2.367l-9.362-.954-2.755 1.301Zm17.33-13.768L15.31.891v15.98l4.387-3.898V1.517ZM1.408 4.737v10.086l3.228-1.524v-9.1l-3.228.538Zm4.055-.676v9.126l9.02.919V2.557l-9.02 1.504Zm10.759-1.33v1.158a.414.414 0 0 0 .827 0V2.731a.414.414 0 0 0-.827 0Zm-1.738-1.013L1.407 3.898V3.08L14.483.902v.816Z" fill="currentColor"/></g><defs><clipPath id="ala"><path fill="#fff" d="M0 0h24v24H0z"/></clipPath></defs></svg><svg fill="none" viewBox="0 0 24 24" id="gadgets" xmlns="http://www.w3.org/2000/svg"><path d="M17.97 0H6.03c-.612 0-1.107.496-1.107 1.107v21.785c0 .612.496 1.108 1.108 1.108h11.938c.612 0 1.108-.496 1.108-1.108V1.107C19.077.495 18.58 0 17.969 0Zm-7.193 1.307h2.446a.23.23 0 1 1 0 .462h-2.446a.231.231 0 0 1 0-.462Zm2.7 20.723h-2.954a.439.439 0 1 1 0-.877h2.954a.438.438 0 0 1 0 .877Zm4.216-2.584H6.307V3.753h11.386v15.693Z" fill="currentColor"/></svg><svg fill="none" viewBox="0 0 21 20" id="gift" xmlns="http://www.w3.org/2000/svg"><g clip-path="url(#ana)" fill="currentColor"><path d="M16.828 4.482c1.471 1.857 1.28 4.487 1.28 6.226h2.147c0-1.814.035-2.274-.137-3.043-.382-1.713-1.552-2.953-3.29-3.183ZM3.225 10.708c0-1.843-.025-2.375.108-3.263.156-1.041.514-2.14 1.17-2.963-1.563.187-2.872 1.312-3.289 3.183-.172.77-.137 1.228-.137 3.043h2.148ZM4.522 7.623c-.119.79-.095 1.245-.095 3.085h1.619v-.624a2.512 2.512 0 0 1 2.509-2.51h4.221a2.512 2.512 0 0 1 2.51 2.51v.624h1.618c0-1.831.024-2.294-.095-3.085-.211-1.414-.95-3.171-2.334-3.171-8.218 0-7.712-.014-7.93.033-.991.215-1.766 1.417-2.023 3.138ZM15.143 13.13h3.488c.332 0 .601.27.601.601v4.347c0 .332-.269.602-.601.602H2.619a.601.601 0 0 1-.602-.602v-4.346c0-.332.27-.602.602-.602h3.57c-.162-.47-.143-.794-.143-1.22H1.077v7.423c0 .332.27.6.601.6h17.976c.332 0 .601-.268.601-.6V11.91h-4.97c0 .421.02.747-.143 1.22Z"/><path d="M3.22 14.333v3.144h14.809v-3.144h-3.746c-.32.25-.697.426-1.109.507 0 1.237-.763 1.862-1.633 1.862H9.717c-.82 0-1.634-.566-1.634-1.878a2.596 2.596 0 0 1-1.033-.491H3.22Z"/><path d="M12.777 8.777H8.555c-.72 0-1.306.586-1.306 1.307v2.193c0 .738.582 1.408 1.436 1.408.33 0 .601.268.601.602v.782c0 .238.193.43.431.43h1.824c.238 0 .43-.192.43-.43v-.782c0-.25.154-.465.371-.556.266-.11.923.092 1.453-.6.327-.428.288-.81.288-1.22v-1.827c0-.72-.586-1.307-1.306-1.307ZM9.652 11.1a.601.601 0 0 1-1.202 0v-.704a.601.601 0 0 1 1.202 0v.704Zm1.615 1.868a.602.602 0 0 1-1.202 0c0-.714-.035-.849.135-1.056a.6.6 0 0 1 1.067.379v.678Zm1.503-1.658a.6.6 0 0 1-1.164-.21v-.704a.601.601 0 0 1 1.202 0c0 .766.011.784-.038.914ZM19.925 1.97h-.364v-.364a.601.601 0 0 0-1.203 0v.365h-.364a.601.601 0 1 0 0 1.202h.364v.364a.601.601 0 0 0 1.203 0v-.364h.364a.601.601 0 1 0 0-1.202ZM14.362 2.207h.364v.365a.601.601 0 1 0 1.203 0v-.365h.364a.601.601 0 0 0 0-1.202h-.364V.64a.601.601 0 0 0-1.203 0v.365h-.364a.601.601 0 0 0 0 1.202ZM4.76 2.207h.364v.365a.601.601 0 0 0 1.202 0v-.365h.365a.601.601 0 0 0 0-1.202h-.365V.64a.601.601 0 1 0-1.202 0v.365h-.365a.601.601 0 0 0 0 1.202ZM1.492 3.173v.364a.601.601 0 1 0 1.203 0v-.364h.364a.601.601 0 1 0 0-1.202h-.364v-.365a.601.601 0 0 0-1.203 0v.365h-.364a.601.601 0 0 0 0 1.202h.364Z"/></g><defs><clipPath id="ana"><path fill="#fff" transform="translate(.526)" d="M0 0h20v20H0z"/></clipPath></defs></svg><svg fill="none" viewBox="0 0 21 20" id="hot" xmlns="http://www.w3.org/2000/svg"><g clip-path="url(#aoa)" fill="currentColor"><path d="M18.208 6.63a.586.586 0 0 0-.538-.354h-4.073L16.311.848A.586.586 0 0 0 15.787 0h-8.16a.586.586 0 0 0-.543.369L3.318 9.782a.586.586 0 0 0 .544.804h4.783l-3.444 8.61a.586.586 0 0 0 .969.622L18.095 7.265a.586.586 0 0 0 .113-.634Z"/><path d="M18.208 6.63a.586.586 0 0 0-.539-.354h-4.072L16.31.848A.586.586 0 0 0 15.787 0h-5.021v14.98l7.328-7.715a.586.586 0 0 0 .114-.634Z"/></g><defs><clipPath id="aoa"><path fill="#fff" transform="translate(.766)" d="M0 0h20v20H0z"/></clipPath></defs></svg><svg viewBox="0 0 24 24" id="hunter" xmlns="http://www.w3.org/2000/svg"><g clip-path="url(#apa)"><path d="M9.362 11.172H7.707a.414.414 0 0 0-.414.414V12h2.483v-.414a.414.414 0 0 0-.414-.414ZM13.914 7.448h-.828v2.897c0 1.304-.555 2.48-1.437 3.31h2.265V7.448ZM6.294 18.376l1.495-.997-1.804-1.202-.293.089.602 2.11ZM12.624 14.482H11.43v.93l.637.182.556-1.111Z"/><path d="M12.259 7.448H4.81v2.897a3.728 3.728 0 0 0 3.724 3.724 3.728 3.728 0 0 0 3.724-3.724V7.448ZM6.052 8.69a.414.414 0 1 1 .828 0 .414.414 0 0 1-.828 0Zm4.552 4.137H6.466v-1.241c0-.684.557-1.241 1.241-1.241h1.655c.685 0 1.242.557 1.242 1.241v1.241Zm0-3.724a.414.414 0 1 1 0-.828.414.414 0 0 1 0 .828ZM15.527.414h-.372c-.999 0-1.835.712-2.027 1.655h.372c1 0 1.835-.712 2.027-1.655ZM14.742 4.552h-.385L2.328 5.754v.867h12.415V4.55ZM11.017 3.31c0-.684.558-1.241 1.242-1.241.01 0 .021.003.032.003l.004-.02A4.139 4.139 0 0 0 8.725 0a4.126 4.126 0 0 0-3.849 2.606 10.77 10.77 0 0 1-1.186 2.18l7.562-.754a1.23 1.23 0 0 1-.235-.722ZM12.673 3.31a.414.414 0 1 1-.828 0 .414.414 0 0 1 .828 0ZM9.28 17.379l1.495.997.605-2.118-.292-.084L9.28 17.38ZM13.914 14.482h-.365l-.671 1.343.642.184.101-.371 2.45.612-.147.588c.356.234.652.537.87.89l1.186-2.373-3.27-1.486a.826.826 0 0 1-.796.614ZM15.694 17.7a14.408 14.408 0 0 1-1.78 3.978V24h2.483v-4.748c0-.607-.262-1.165-.703-1.551ZM13.086 24v-1.17A14.49 14.49 0 0 1 12.06 24h1.027Z"/><path d="m15.067 16.853-.86-.216-.049.178a14.433 14.433 0 0 1-4.277 6.943L9.613 24h1.24a13.56 13.56 0 0 0 4.14-6.85l.074-.297ZM2.14 17.344a2.057 2.057 0 0 0-1.467 1.98V24h2.482v-3.15c0-1.243-.204-2.461-.606-3.63l-.409.124Z"/><path d="m13.295 16.805-1.119-.32-.917 3.208-2.31-1.54v5.331l.378-.34a13.599 13.599 0 0 0 3.968-6.339ZM4.899 16.506l-1.559.474c.426 1.246.643 2.544.643 3.869v3.15H8.12v-5.847l-2.311 1.54-.911-3.186ZM3.983 10.345V7.448h-.828v6.207h2.266a4.534 4.534 0 0 1-1.438-3.31ZM10.604 14.394a4.517 4.517 0 0 1-4.138 0v1.108l2.069 1.38 2.069-1.38v-1.108ZM21.363 8.621l-.881-1.783-1.507 2.61.454 1.696-1.294 2.241-2.54-1.172 1.488-2.577 1.696-.455 1.507-2.61L18.3 6.7l-.882-1.783-1.507 2.61.455 1.695-1.527 2.643-.098-.046v1.156l3.946 1.793.458-.916-.256-.119 1.256-2.176 1.696-.454 1.507-2.61-1.986.128Z"/></g><defs><clipPath id="apa"><path fill="#fff" d="M0 0h24v24H0z"/></clipPath></defs></svg><svg fill="none" viewBox="0 0 80 80" id="logo" xmlns="http://www.w3.org/2000/svg"><circle cx="40" cy="40" r="40" fill="#4888FF"/><circle cx="40" cy="40" r="35" fill="#4888FF"/><path d="M40.5 59.292a18.668 18.668 0 0 0 13.287-5.505 1.708 1.708 0 0 0 0-2.415L42.916 40.5l10.871-10.872a1.708 1.708 0 0 0 0-2.415 18.79 18.79 0 0 0-31.989 15.13A18.792 18.792 0 0 0 40.5 59.291Zm0-34.167a15.26 15.26 0 0 1 9.597 3.36L39.292 39.292a1.708 1.708 0 0 0 0 2.416l10.805 10.807a15.374 15.374 0 1 1-9.597-27.39ZM59.292 40.5a3.417 3.417 0 1 1-6.834 0 3.417 3.417 0 0 1 6.834 0Zm-25.625-8.542a3.417 3.417 0 1 1 6.834 0 3.417 3.417 0 0 1-6.834 0Z" fill="#fff"/></svg><svg viewBox="0 0 16 16" id="mark" xmlns="http://www.w3.org/2000/svg"><path d="M8.053 15c.959-1.074 5.297-6.083 5.297-8.703a5.297 5.297 0 1 0-10.593 0c0 2.62 4.338 7.629 5.296 8.703Zm0-10.973a2.27 2.27 0 1 1 0 4.54 2.27 2.27 0 0 1 0-4.54Z" opacity=".5"/></svg><svg fill="none" viewBox="0 0 24 24" id="new" xmlns="http://www.w3.org/2000/svg"><g clip-path="url(#asa)"><path d="m23.846 13.069-1.764-2.799a1.003 1.003 0 0 1-.131-.746l.7-3.233a1.002 1.002 0 0 0-.673-1.165l-3.15-1.01a1.002 1.002 0 0 1-.58-.487L16.705.702a1.001 1.001 0 0 0-1.265-.46l-3.063 1.25a1.003 1.003 0 0 1-.757 0L8.56.243a1.002 1.002 0 0 0-1.265.46L5.752 3.63c-.122.232-.33.406-.58.486l-3.15 1.01a1.001 1.001 0 0 0-.673 1.166l.7 3.233c.056.256.008.524-.131.746L.154 13.07a1.002 1.002 0 0 0 .234 1.325l2.614 2.027c.208.16.344.396.38.656l.447 3.277c.07.511.516.886 1.031.866l3.306-.128c.262-.01.517.082.712.259l2.449 2.222c.382.346.965.346 1.346 0l2.45-2.223a1 1 0 0 1 .712-.258l3.305.128c.515.02.961-.355 1.031-.866l.448-3.277c.036-.26.172-.495.379-.656l2.614-2.027c.407-.316.509-.89.234-1.325ZM9.225 15.997l-2.92-2.039 1.2 2.78-.8.346-1.839-4.264.837-.361 2.974 2.094-1.229-2.848.8-.345 1.84 4.264-.863.373Zm1.774-.766-1.84-4.264 3.161-1.364.311.721-2.3.993.407.945 2.141-.924.31.719-2.14.923.5 1.16 2.382-1.027.31.718-3.242 1.4Zm7.207-3.11L15.98 9.299l.529 3.553-.934.403-2.857-3.824.88-.38 1.908 2.65-.485-3.264 1.024-.442 2.033 2.656-.631-3.261.866-.374.805 4.71-.913.395Z" fill="currentColor"/></g><defs><clipPath id="asa"><path fill="#fff" d="M0 0h24v24H0z"/></clipPath></defs></svg><svg fill="none" viewBox="0 0 24 24" id="occasion" xmlns="http://www.w3.org/2000/svg"><g clip-path="url(#ata)"><path d="M17.5 15h-13c-3.5 0-4-4-4-4h17v4ZM23.5 12H20v2h3.5v-2Z" fill="currentColor"/><path d="M18.5 14h-1v-2H20v2h-1.5ZM14 6.5v13c0 3.5-4 4-4 4v-17h4Z" fill="#fff"/><path d="M13 .5h-2V4h2V.5Z" fill="currentColor"/><path d="M13 5.5v1h-2V4h2v1.5Z" fill="#fff"/><path d="M16 8V7a1 1 0 0 0-1-1h-1.5V4.5h1v-1h-1v-3A.5.5 0 0 0 13 0h-2a.5.5 0 0 0-.5.5v3h-1v1h1V6H9a1 1 0 0 0-1 1v1h1V7h.5v16.5a.5.5 0 0 0 .562.496c1.535-.192 4.438-1.378 4.438-4.496V7h.5v1h1Zm-4.5-7h1v2.5h-1V1Zm0 3.5h1V6h-1V4.5Zm2 15c0 2.3-1.993 3.119-3 3.387V7h3v12.5Z" fill="currentColor"/><path d="M12.5 12.5h-1v8h1v-8ZM12.5 10.5h-1v1h1v-1ZM12.5 8.5h-1v1h1v-1ZM.125 10.669a.5.5 0 0 0-.121.393C.196 12.597 1.382 15.5 4.5 15.5h4v-1h-4c-2.3 0-3.12-1.993-3.387-3H8.5v-1h-8a.5.5 0 0 0-.375.169ZM17 9h-1v1h1v.5h-1.5v1H17v3h-1.5v1H17v.5h-1v1h1a1 1 0 0 0 1-1v-6a1 1 0 0 0-1-1Z" fill="currentColor"/><path d="M8.5 12.5h-5v1h5v-1ZM23.5 11.5h-3v-1h-1v1h-1v1h1v1h-1v1h1v1h1v-1h3a.5.5 0 0 0 .5-.5v-2a.5.5 0 0 0-.5-.5Zm-.5 2h-2.5v-1H23v1Z" fill="currentColor"/></g><defs><clipPath id="ata"><path fill="#fff" d="M0 0h24v24H0z"/></clipPath></defs></svg><svg viewBox="0 0 16 16" id="phone" xmlns="http://www.w3.org/2000/svg"><path d="M10.336 1.346H5.664A1.659 1.659 0 0 0 4 3.01v9.98c0 .923.756 1.664 1.664 1.664h4.672A1.658 1.658 0 0 0 12 12.99V3.01a1.657 1.657 0 0 0-1.664-1.664ZM8.008 13.58a.749.749 0 0 1-.756-.756c0-.424.332-.756.756-.756.423 0 .756.332.756.756a.749.749 0 0 1-.756.756Zm3.236-2.314H4.756V3.57h6.488v7.697Z" fill-opacity=".5"/></svg><svg fill="none" viewBox="0 0 24 24" id="search" xmlns="http://www.w3.org/2000/svg"><path d="m21.767 20.59-4.97-4.97a8.34 8.34 0 1 0-1.178 1.176l4.97 4.97a.833.833 0 0 0 1.178-1.177Zm-11.414-3.575a6.662 6.662 0 1 1 6.662-6.662 6.669 6.669 0 0 1-6.662 6.662Z" fill="#fff"/></svg><svg viewBox="0 0 24 24" id="telegram" xmlns="http://www.w3.org/2000/svg"><path d="M23.53 1.966a1.45 1.45 0 0 0-1.432-.307L.995 8.615c-.575.19-.965.703-.993 1.308a1.439 1.439 0 0 0 .866 1.395l5.219 2.283 1.574 7.303c.066.304.22.574.546.657.33.084.563-.096.81-.28l3.872-2.9 4.528 3.704a1.44 1.44 0 0 0 1.382.251c.477-.161.83-.55.945-1.04l4.218-17.93a1.45 1.45 0 0 0-.432-1.4ZM9.354 14.91a.177.177 0 0 0-.008.021l-.873 3.05-.974-4.518 6.7-3.722-4.685 4.897a.704.704 0 0 0-.16.272Zm.277 4.15.396-1.386.38-1.325 1.358 1.112-2.134 1.599ZM22.589 3.043l-4.217 17.93c-.002.01-.005.021-.025.028-.02.007-.03 0-.038-.006l-4.954-4.055-2.296-1.878 7.375-7.711a.705.705 0 0 0-.852-1.103l-10.92 6.067-5.229-2.288c-.016-.007-.025-.011-.023-.038 0-.027.01-.03.027-.035l21.102-6.957c.01-.003.022-.007.039.009.017.015.014.027.011.037Z"/></svg><svg fill="none" viewBox="0 0 24 24" id="tv" xmlns="http://www.w3.org/2000/svg"><path d="M18.048 20.987h-2.616v-1.261H8.569v1.261H5.952a.714.714 0 1 0 0 1.428h12.096a.714.714 0 1 0 0-1.428ZM0 15.654v1.93c0 .394.32.714.714.714h22.572c.394 0 .714-.32.714-.714v-1.93H0ZM23.286 1.585H.714A.714.714 0 0 0 0 2.299v11.926h24V2.3a.714.714 0 0 0-.714-.714Z" fill="currentColor"/></svg><svg viewBox="0 0 24 24" id="whatsapp" xmlns="http://www.w3.org/2000/svg"><path fill-rule="evenodd" clip-rule="evenodd" d="M20.13 3.27A11.077 11.077 0 0 0 12.243 0C6.098 0 1.096 5.001 1.093 11.149c0 1.965.513 3.883 1.489 5.574L1 22.5l5.91-1.55a11.137 11.137 0 0 0 5.328 1.357h.005c6.145 0 11.147-5.002 11.15-11.15A11.08 11.08 0 0 0 20.13 3.27Zm-7.887 17.154h-.004a9.256 9.256 0 0 1-4.716-1.292l-.339-.201-3.507.92.936-3.42-.22-.35a9.244 9.244 0 0 1-1.417-4.932c.002-5.11 4.16-9.266 9.27-9.266 2.476 0 4.803.966 6.552 2.718a9.212 9.212 0 0 1 2.712 6.556c-.002 5.11-4.16 9.267-9.267 9.267Zm5.083-6.94c-.278-.14-1.648-.814-1.904-.907-.255-.093-.44-.14-.626.14-.186.278-.72.906-.882 1.091-.163.187-.325.21-.604.07-.279-.14-1.176-.433-2.24-1.383-.829-.738-1.388-1.65-1.55-1.93-.162-.278-.002-.415.122-.568.302-.374.604-.767.697-.953.092-.186.046-.348-.024-.488s-.626-1.51-.859-2.068c-.226-.543-.455-.47-.627-.479-.162-.008-.348-.01-.533-.01-.186 0-.488.07-.743.35-.256.278-.975.952-.975 2.323 0 1.372.998 2.696 1.137 2.882.14.186 1.965 3 4.76 4.207.664.287 1.183.458 1.587.587.668.212 1.275.182 1.755.11.535-.08 1.648-.674 1.88-1.325.233-.65.233-1.208.163-1.324-.07-.117-.255-.186-.534-.326Z"/></svg><svg fill="none" viewBox="0 0 24 24" id="whom" xmlns="http://www.w3.org/2000/svg"><path d="M8.741 9.184c.749 1.75 3.023 2.617 4.74 1.77 2.294-.933 2.817-4.3.957-5.886-2.836-2.643-7.31.568-5.697 4.116Zm7.163 3.57c-.718-.456-1.593-.701-2.482-.71-.105-.004-3.108-.01-3.106.014-2.46.113-4.457 2.192-4.456 4.703.042.416-.068 1.68.065 2.069A2.546 2.546 0 0 0 8.4 20.79h7.2c1.413.005 2.554-1.174 2.54-2.541v-1.488a4.715 4.715 0 0 0-2.235-4.006Z" fill="currentColor"/><path d="M3.182 18.83h1.64c-.094-.38-.035-1.767-.051-2.178a5.83 5.83 0 0 1 4.144-5.458c-.215-.17-.404-.399-.58-.602a3.623 3.623 0 0 0-.486-.03h-2.65a4.455 4.455 0 0 0-4.449 4.45V16.4a2.431 2.431 0 0 0 2.432 2.43Zm3.345-8.811c.458 0 .885-.088 1.285-.255a4.538 4.538 0 0 1-.48-2.235A4.657 4.657 0 0 1 8.916 4.19c-2.039-2.108-5.862-.547-5.799 2.425a3.415 3.415 0 0 0 3.411 3.403Zm12.274.544h-2.65c-.521-.111-.715.346-1.066.631.96.287 1.828.82 2.518 1.546a5.79 5.79 0 0 1 1.626 3.912c-.015.416.041 1.785-.05 2.177h1.64a2.432 2.432 0 0 0 2.431-2.43v-1.387a4.455 4.455 0 0 0-4.449-4.449ZM16.377 6.07a4.616 4.616 0 0 1-.189 3.695c.407.17.844.256 1.285.253 4.507-.147 4.507-6.666 0-6.807a3.412 3.412 0 0 0-2.388.98 4.603 4.603 0 0 1 1.292 1.88Z" fill="currentColor"/></svg><svg viewBox="0 0 24 24" id="wish" xmlns="http://www.w3.org/2000/svg"><path d="M17.04 2.8A5.865 5.865 0 0 0 12 5.824 5.864 5.864 0 0 0 6.96 2.8a6.23 6.23 0 0 0-5.956 6.46c0 4.166 4.386 8.717 8.064 11.802a4.558 4.558 0 0 0 5.864 0c3.678-3.085 8.063-7.636 8.063-11.802A6.23 6.23 0 0 0 17.04 2.8Z"/></svg></svg>